<svg xmlns="http://www.w3.org/2000/svg">
<symbol id="logo"  viewBox="0 0 512 512" style="enable-background:new 0 0 512 512">
<path d="M256 0a7.836 7.836 0 0 0-7.837 7.837v34.4c0 4.328 3.508 7.837 7.837 7.837s7.837-3.508 7.837-7.837v-34.4A7.836 7.836 0 0 0 256 0zM256 461.926a7.836 7.836 0 0 0-7.837 7.837v34.4c0 4.329 3.508 7.837 7.837 7.837s7.837-3.508 7.837-7.837v-34.4a7.836 7.836 0 0 0-7.837-7.837zM45.386 248.163H11.494c-4.329 0-7.837 3.508-7.837 7.837s3.508 7.837 7.837 7.837h33.892c4.329 0 7.837-3.508 7.837-7.837s-3.509-7.837-7.837-7.837zM500.506 248.163h-33.891c-4.329 0-7.837 3.508-7.837 7.837s3.508 7.837 7.837 7.837h33.891c4.329 0 7.837-3.508 7.837-7.837s-3.508-7.837-7.837-7.837zM112.574 401.572a7.836 7.836 0 0 0-11.083.083l-23.966 24.324a7.838 7.838 0 0 0 11.166 11.001l23.966-24.324a7.84 7.84 0 0 0-.083-11.084zM434.395 74.942a7.837 7.837 0 0 0-11.083.081l-23.968 24.322a7.835 7.835 0 0 0 .081 11.081 7.812 7.812 0 0 0 5.501 2.255 7.816 7.816 0 0 0 5.582-2.336l23.968-24.322a7.836 7.836 0 0 0-.081-11.081zM434.477 425.977l-23.969-24.322a7.832 7.832 0 0 0-11.082-.082 7.836 7.836 0 0 0-.08 11.081l23.968 24.322a7.81 7.81 0 0 0 5.582 2.336 7.835 7.835 0 0 0 5.581-13.335zM112.657 99.346 88.691 75.022a7.834 7.834 0 0 0-11.082-.083 7.837 7.837 0 0 0-.083 11.082l23.965 24.324a7.812 7.812 0 0 0 5.583 2.336c1.986 0 3.974-.75 5.5-2.254a7.835 7.835 0 0 0 .083-11.081zM424.729 192.453l-53.025-81.188c-4.475-6.842-12.006-10.927-20.142-10.927h-112.28a7.837 7.837 0 0 0-7.837 7.837 7.836 7.836 0 0 0 7.837 7.837h2.146l-37.541 57.471-37.541-57.471h40.544a7.836 7.836 0 0 0 7.837-7.837 7.837 7.837 0 0 0-7.837-7.837h-46.448c-8.144 0-15.673 4.087-20.144 10.931l-53.026 81.182c-5.842 8.94-5.224 20.495 1.535 28.755l148.583 181.58c4.595 5.618 11.379 8.841 18.612 8.841 7.23 0 14.012-3.221 18.609-8.839l84.218-102.918a7.839 7.839 0 0 0-12.131-9.927l-75.269 91.983 54.819-167.212h82.011l-39.975 48.851a7.839 7.839 0 0 0 12.131 9.927l42.784-52.286c6.755-8.258 7.37-19.812 1.53-28.753zm-79.075-76.441-37.542 57.47-37.54-57.47h75.082zm-193.882 6.351 42.754 65.451-7.334 11.226h-85.504l50.084-76.677zm104.252 256.235-31.543-96.813c-1.341-4.116-5.769-6.367-9.878-5.024a7.837 7.837 0 0 0-5.024 9.878l31.079 95.39-136.912-167.315h82.399l13.904 42.674a7.838 7.838 0 0 0 7.449 5.411c.805 0 1.624-.124 2.429-.388a7.836 7.836 0 0 0 5.024-9.878l-12.322-37.818h39.423a7.836 7.836 0 0 0 7.837-7.837 7.836 7.836 0 0 0-7.837-7.837h-36.138L256 122.363l50.087 76.678h-26.549a7.836 7.836 0 0 0-7.837 7.837 7.836 7.836 0 0 0 7.837 7.837h30.212l-53.726 163.883zm68.785-179.557-7.335-11.228 42.756-65.453 50.082 76.682h-85.503z"/></symbol>
<symbol id="burger-close" width="29" height="29" viewbox="0 0 29 29" fill="none">
<rect x="2.63623" width="37.2838" height="3.72838" transform="rotate(45 2.63623 0)" fill="white"/>
<rect y="26.3636" width="37.2838" height="3.72838" transform="rotate(-45 0 26.3636)" fill="white"/>  </symbol>
<symbol id="burger-opn"  width="36" height="29" viewBox="0 0 36 29" fill="none"><rect width="36" height="3.65217" transform="matrix(-1 0 0 1 36 0.700012)" fill="white"/>
<path d="M28.2002 12.8739H0.00019455V16.5261H28.2002V12.8739Z" fill="white"/>
<path d="M24 25.0479H0V28.7H24V25.0479Z" fill="white"/></symbol>
<symbol id="fb"  width="60" height="60" viewBox="0 0 60 60">
<path d="M12 27V15H8v-4h4V8.852C12 4.785 13.981 3 17.361 3c1.619 0 2.475.12 2.88.175V7h-2.305C16.501 7 16 7.757 16 9.291V11h4.205l-.571 4H16v12h-4z"/></symbol>
<symbol id="tel" width="60" height="60" viewBox="0 0 60 60">
<path d="M401.129 311.475c-1.137-3.426-8.371-8.473-21.697-15.129-3.61-2.098-8.754-4.949-15.41-8.566a1437.412 1437.412 0 0 1-18.13-9.996 605.612 605.612 0 0 1-15.276-8.846c-.76-.571-3.139-2.234-7.136-5-4.001-2.758-7.375-4.805-10.14-6.14-2.759-1.327-5.473-1.995-8.138-1.995-3.806 0-8.56 2.714-14.268 8.135a139.01 139.01 0 0 0-15.7 17.706c-4.757 6.379-9.802 12.275-15.126 17.7-5.332 5.427-9.713 8.138-13.135 8.138-1.718 0-3.86-.479-6.427-1.424-2.566-.951-4.518-1.766-5.858-2.423-1.328-.671-3.607-1.999-6.845-4.004-3.244-1.999-5.048-3.094-5.428-3.285-26.075-14.469-48.438-31.029-67.093-49.676-18.649-18.658-35.211-41.019-49.676-67.097-.19-.381-1.287-2.19-3.284-5.424-2-3.237-3.333-5.518-3.999-6.854-.666-1.331-1.475-3.283-2.425-5.852s-1.427-4.709-1.427-6.424c0-3.424 2.713-7.804 8.138-13.134 5.424-5.327 11.326-10.373 17.7-15.128a138.95 138.95 0 0 0 17.701-15.699c5.424-5.711 8.136-10.467 8.136-14.273 0-2.663-.666-5.378-1.997-8.137-1.332-2.765-3.378-6.139-6.139-10.138-2.762-3.997-4.427-6.374-4.999-7.139a627.13 627.13 0 0 1-8.848-15.271 1441.4 1441.4 0 0 1-9.995-18.131c-3.615-6.658-6.468-11.799-8.564-15.415C98.986 9.233 93.943 1.997 90.516.859 89.183.288 87.183 0 84.521 0c-5.142 0-11.85.95-20.129 2.856-8.282 1.903-14.799 3.899-19.558 5.996-9.517 3.995-19.604 15.605-30.264 34.826C4.863 61.566.01 79.271.01 96.78c0 5.135.333 10.131.999 14.989.666 4.853 1.856 10.326 3.571 16.418 1.712 6.09 3.093 10.614 4.137 13.56 1.045 2.948 2.996 8.229 5.852 15.845 2.852 7.614 4.567 12.275 5.138 13.988 6.661 18.654 14.56 35.307 23.695 49.964 15.03 24.362 35.541 49.539 61.521 75.521 25.981 25.98 51.153 46.49 75.517 61.526 14.655 9.134 31.314 17.032 49.965 23.698 1.714.568 6.375 2.279 13.986 5.141 7.614 2.854 12.897 4.805 15.845 5.852 2.949 1.048 7.474 2.43 13.559 4.145 6.098 1.715 11.566 2.905 16.419 3.576 4.856.657 9.853.996 14.989.996 17.508 0 35.214-4.856 53.105-14.562 19.219-10.656 30.826-20.745 34.823-30.269 2.102-4.754 4.093-11.273 5.996-19.555 1.909-8.278 2.857-14.985 2.857-20.126.006-2.673-.281-4.668-.855-6.012z"/></symbol>
<symbol id="mail"  width="60" height="60" viewBox="0 0 60 60">
<path d="M4 5c-1.093 0-2 .907-2 2v16c0 1.093.907 2 2 2h22c1.093 0 2-.907 2-2V7c0-1.093-.907-2-2-2H4zm2.7 2h16.6L15 13.135 6.7 7zM5 9.475l10 7.39 10-7.39V23H5V9.475z"/></symbol>
</svg>
